<?xml version="1.0" encoding="utf-8"?>
<svg xmlns="http://www.w3.org/2000/svg" xmlns:xlink="http://www.w3.org/1999/xlink" >
    <symbol viewBox="0 0 622 795" id="big-logo" >
        <g opacity="0.05">
            <path d="M342.303 68.2139L553.781 279.693L424.628 408.852L458.734 442.959L622 279.693L342.305 0L307.813 34.4931L341.919 68.5986L342.303 68.2139Z" />
            <path d="M279.696 726.583L68.2156 515.102L197.375 385.943L163.268 351.836L0 515.105L279.694 794.798L314.189 760.304L280.083 726.197L279.696 726.583Z" />
            <path d="M286.18 406.531L286.1 406.611L389.574 510.085C403.712 524.224 411.654 543.4 411.654 563.394C411.654 583.389 403.711 602.565 389.574 616.704L314.19 692.087L348.296 726.193L423.68 650.81C446.587 627.888 459.574 596.886 459.843 564.482C460.112 532.077 447.642 500.863 425.119 477.565C424.618 477.046 424.192 476.485 423.683 475.976L407.648 459.94L335.905 388.197L232.424 284.717C218.285 270.577 210.342 251.4 210.342 231.404C210.342 211.408 218.285 192.231 232.424 178.092L307.808 102.708L273.702 68.6021L198.318 143.986C175.421 166.898 162.434 197.885 162.155 230.276C161.876 262.668 174.327 293.874 196.826 317.177L197.375 317.727L286.18 406.531Z" />
        </g>
    </symbol>
    <symbol viewBox="0 0 20 20" id="info"> 
     <g>
        <path d="M19 10C19 14.962 14.962 19 10 19C5.038 19 1 14.962 1 10C1 5.038 5.038 1 10 1C14.962 1 19 5.038 19 10Z" stroke="#918BC5" stroke-width="2"/>
        <path d="M10.0714 7.92857C9.46429 7.92857 9 8.39286 9 9V14.4643C9 15.0714 9.46429 15.5357 10.0714 15.5357C10.6786 15.5357 11.1429 15.0714 11.1429 14.4643V9C11.1429 8.39286 10.6786 7.92857 10.0714 7.92857Z" fill="#918BC5"/>
        <path d="M10.0714 4C9.78571 4 9.5 4.10714 9.32143 4.32143C9.10714 4.5 9 4.78571 9 5.07143C9 5.14286 9 5.21429 9.03571 5.28571C9.03571 5.35714 9.07143 5.42857 9.10714 5.5C9.14286 5.57143 9.17857 5.60714 9.21429 5.67857C9.25 5.75 9.28571 5.78571 9.35714 5.85714C9.75 6.25 10.4643 6.25 10.8571 5.85714C10.8929 5.82143 10.9643 5.75 11 5.67857C11.0357 5.60714 11.0714 5.57143 11.1071 5.5C11.1429 5.42857 11.1429 5.35714 11.1786 5.28571C11.1786 5.21429 11.2143 5.14286 11.2143 5.07143C11.2143 4.78571 11.1071 4.5 10.8929 4.32143C10.6429 4.10714 10.3571 4 10.0714 4Z" fill="#918BC5"/> 
     </g>
    </symbol>
    <symbol viewBox="0 0 201 59" id="logo"> 
        <path d="M23.6875 8.72041L38.3218 23.3548L29.3844 32.2927L31.7445 34.6529L43.0425 23.3548L23.6876 4L21.3008 6.38693L23.6609 8.74704L23.6875 8.72041Z" fill="#EE2654"/>
        <path d="M19.3551 54.2797L4.72053 39.6452L13.6584 30.7074L11.2982 28.3472L0 39.6454L19.3549 59.0002L21.742 56.6132L19.3818 54.253L19.3551 54.2797Z" fill="#EE2654"/>
        <path d="M19.8038 32.1323L19.7983 32.1378L26.9587 39.2983C27.937 40.2767 28.4866 41.6036 28.4866 42.9873C28.4866 44.3709 27.937 45.6979 26.9587 46.6763L21.7421 51.8929L24.1023 54.253L29.3188 49.0364C30.904 47.4503 31.8027 45.3049 31.8213 43.0625C31.84 40.8201 30.977 38.6601 29.4184 37.0479C29.3837 37.012 29.3543 36.9732 29.319 36.9379L28.2094 35.8283L23.2448 30.8636L16.0839 23.7028C15.1055 22.7243 14.5558 21.3972 14.5558 20.0135C14.5558 18.6298 15.1055 17.3027 16.0839 16.3243L21.3005 11.1077L18.9403 8.74756L13.7238 13.9641C12.1392 15.5497 11.2406 17.694 11.2213 19.9355C11.202 22.1769 12.0635 24.3364 13.6205 25.949L13.6585 25.9871L19.8038 32.1323Z" fill="white"/>
        <path d="M50.8035 46.6802C50.4075 46.6802 50.0745 46.5452 49.8045 46.2752C49.5345 46.0052 49.3995 45.6722 49.3995 45.2762V26.9972C49.3995 26.5832 49.5345 26.2502 49.8045 25.9982C50.0745 25.7282 50.4075 25.5932 50.8035 25.5932H63.0075C63.4215 25.5932 63.7545 25.7192 64.0065 25.9712C64.2585 26.2052 64.3845 26.5202 64.3845 26.9162C64.3845 27.2942 64.2585 27.6002 64.0065 27.8342C63.7545 28.0682 63.4215 28.1852 63.0075 28.1852H52.2075V34.7462H59.9565C60.3705 34.7462 60.7035 34.8722 60.9555 35.1242C61.2075 35.3582 61.3335 35.6642 61.3335 36.0422C61.3335 36.4202 61.2075 36.7352 60.9555 36.9872C60.7035 37.2212 60.3705 37.3382 59.9565 37.3382H52.2075V44.0882H63.0075C63.4215 44.0882 63.7545 44.2052 64.0065 44.4392C64.2585 44.6732 64.3845 44.9792 64.3845 45.3572C64.3845 45.7532 64.2585 46.0772 64.0065 46.3292C63.7545 46.5632 63.4215 46.6802 63.0075 46.6802H50.8035ZM74.7307 46.7882C73.2907 46.7882 72.0037 46.4642 70.8697 45.8162C69.7537 45.1502 68.8717 44.2592 68.2237 43.1432C67.5937 42.0092 67.2787 40.7312 67.2787 39.3092C67.2787 37.8512 67.5937 36.5552 68.2237 35.4212C68.8537 34.2872 69.7177 33.4052 70.8157 32.7752C71.9137 32.1272 73.1737 31.8032 74.5957 31.8032C75.6577 31.8032 76.6297 32.0102 77.5117 32.4242C78.3937 32.8202 79.1857 33.4232 79.8877 34.2332C80.1397 34.5212 80.2297 34.8182 80.1577 35.1242C80.0857 35.4302 79.8877 35.7002 79.5637 35.9342C79.3117 36.1142 79.0327 36.1772 78.7267 36.1232C78.4207 36.0512 78.1417 35.8892 77.8897 35.6372C77.0077 34.7012 75.9097 34.2332 74.5957 34.2332C73.6777 34.2332 72.8677 34.4492 72.1657 34.8812C71.4637 35.2952 70.9147 35.8802 70.5187 36.6362C70.1227 37.3922 69.9247 38.2832 69.9247 39.3092C69.9247 40.2812 70.1227 41.1452 70.5187 41.9012C70.9327 42.6572 71.4997 43.2602 72.2197 43.7102C72.9397 44.1422 73.7767 44.3582 74.7307 44.3582C75.3607 44.3582 75.9097 44.2862 76.3777 44.1422C76.8637 43.9802 77.3047 43.7372 77.7007 43.4132C77.9887 43.1792 78.2857 43.0532 78.5917 43.0352C78.8977 42.9992 79.1677 43.0802 79.4017 43.2782C79.7077 43.5302 79.8787 43.8182 79.9147 44.1422C79.9507 44.4482 79.8427 44.7272 79.5907 44.9792C78.2947 46.1852 76.6747 46.7882 74.7307 46.7882ZM90.9466 46.7882C89.4886 46.7882 88.2016 46.4732 87.0856 45.8432C85.9696 45.1952 85.0876 44.3132 84.4396 43.1972C83.8096 42.0632 83.4946 40.7672 83.4946 39.3092C83.4946 37.8332 83.8096 36.5372 84.4396 35.4212C85.0876 34.2872 85.9696 33.4052 87.0856 32.7752C88.2016 32.1272 89.4886 31.8032 90.9466 31.8032C92.3866 31.8032 93.6646 32.1272 94.7806 32.7752C95.8966 33.4052 96.7696 34.2872 97.3996 35.4212C98.0476 36.5372 98.3716 37.8332 98.3716 39.3092C98.3716 40.7672 98.0566 42.0632 97.4266 43.1972C96.7966 44.3132 95.9236 45.1952 94.8076 45.8432C93.6916 46.4732 92.4046 46.7882 90.9466 46.7882ZM90.9466 44.3582C91.8826 44.3582 92.7106 44.1422 93.4306 43.7102C94.1506 43.2782 94.7086 42.6842 95.1046 41.9282C95.5186 41.1722 95.7256 40.2992 95.7256 39.3092C95.7256 38.3192 95.5186 37.4462 95.1046 36.6902C94.7086 35.9162 94.1506 35.3132 93.4306 34.8812C92.7106 34.4492 91.8826 34.2332 90.9466 34.2332C90.0106 34.2332 89.1826 34.4492 88.4626 34.8812C87.7426 35.3132 87.1756 35.9162 86.7616 36.6902C86.3476 37.4462 86.1406 38.3192 86.1406 39.3092C86.1406 40.2992 86.3476 41.1722 86.7616 41.9282C87.1756 42.6842 87.7426 43.2782 88.4626 43.7102C89.1826 44.1422 90.0106 44.3582 90.9466 44.3582Z" fill="white"/>
        <path d="M104.144 46.6802C103.748 46.6802 103.415 46.5452 103.145 46.2752C102.875 46.0052 102.74 45.6722 102.74 45.2762V26.9972C102.74 26.5832 102.875 26.2502 103.145 25.9982C103.415 25.7282 103.748 25.5932 104.144 25.5932H109.004C110.354 25.5932 111.551 25.8812 112.595 26.4572C113.639 27.0152 114.449 27.7892 115.025 28.7792C115.619 29.7692 115.916 30.9212 115.916 32.2352C115.916 33.4592 115.619 34.5482 115.025 35.5022C114.449 36.4562 113.639 37.2032 112.595 37.7432C111.551 38.2832 110.354 38.5532 109.004 38.5532H105.548V45.2762C105.548 45.6722 105.413 46.0052 105.143 46.2752C104.891 46.5452 104.558 46.6802 104.144 46.6802ZM115.349 46.6802C115.097 46.6802 114.863 46.6262 114.647 46.5182C114.449 46.4102 114.278 46.2392 114.134 46.0052L109.274 38.1752L112.001 37.3922L116.429 44.5202C116.753 45.0422 116.798 45.5372 116.564 46.0052C116.33 46.4552 115.925 46.6802 115.349 46.6802ZM105.548 35.9612H109.004C109.832 35.9612 110.561 35.8082 111.191 35.5022C111.821 35.1782 112.316 34.7372 112.676 34.1792C113.036 33.6032 113.216 32.9552 113.216 32.2352C113.216 31.4432 113.036 30.7412 112.676 30.1292C112.316 29.5172 111.821 29.0402 111.191 28.6982C110.561 28.3562 109.832 28.1852 109.004 28.1852H105.548V35.9612ZM126.469 46.7882C124.975 46.7882 123.643 46.4732 122.473 45.8432C121.321 45.1952 120.412 44.3132 119.746 43.1972C119.098 42.0632 118.774 40.7672 118.774 39.3092C118.774 37.8332 119.08 36.5372 119.692 35.4212C120.322 34.2872 121.186 33.4052 122.284 32.7752C123.382 32.1272 124.642 31.8032 126.064 31.8032C127.468 31.8032 128.674 32.1182 129.682 32.7482C130.69 33.3602 131.455 34.2152 131.977 35.3132C132.517 36.3932 132.787 37.6442 132.787 39.0662C132.787 39.4082 132.67 39.6962 132.436 39.9302C132.202 40.1462 131.905 40.2542 131.545 40.2542H120.664V38.0942H131.464L130.357 38.8502C130.339 37.9502 130.159 37.1492 129.817 36.4472C129.475 35.7272 128.989 35.1602 128.359 34.7462C127.729 34.3322 126.964 34.1252 126.064 34.1252C125.038 34.1252 124.156 34.3502 123.418 34.8002C122.698 35.2502 122.149 35.8712 121.771 36.6632C121.393 37.4372 121.204 38.3192 121.204 39.3092C121.204 40.2992 121.429 41.1812 121.879 41.9552C122.329 42.7292 122.95 43.3412 123.742 43.7912C124.534 44.2412 125.443 44.4662 126.469 44.4662C127.027 44.4662 127.594 44.3672 128.17 44.1692C128.764 43.9532 129.241 43.7102 129.601 43.4402C129.871 43.2422 130.159 43.1432 130.465 43.1432C130.789 43.1252 131.068 43.2152 131.302 43.4132C131.608 43.6832 131.77 43.9802 131.788 44.3042C131.806 44.6282 131.662 44.9072 131.356 45.1412C130.744 45.6272 129.979 46.0232 129.061 46.3292C128.161 46.6352 127.297 46.7882 126.469 46.7882ZM141.672 46.6802C140.772 46.6802 139.962 46.4552 139.242 46.0052C138.522 45.5372 137.955 44.9072 137.541 44.1152C137.127 43.3232 136.92 42.4322 136.92 41.4422V28.5632C136.92 28.1672 137.046 27.8432 137.298 27.5912C137.55 27.3392 137.874 27.2132 138.27 27.2132C138.666 27.2132 138.99 27.3392 139.242 27.5912C139.494 27.8432 139.62 28.1672 139.62 28.5632V41.4422C139.62 42.1622 139.818 42.7652 140.214 43.2512C140.61 43.7372 141.096 43.9802 141.672 43.9802H142.59C142.914 43.9802 143.184 44.1062 143.4 44.3582C143.634 44.6102 143.751 44.9342 143.751 45.3302C143.751 45.7262 143.598 46.0502 143.292 46.3022C143.004 46.5542 142.626 46.6802 142.158 46.6802H141.672ZM135.678 34.7732C135.3 34.7732 134.994 34.6652 134.76 34.4492C134.526 34.2332 134.409 33.9632 134.409 33.6392C134.409 33.2792 134.526 32.9912 134.76 32.7752C134.994 32.5592 135.3 32.4512 135.678 32.4512H141.915C142.293 32.4512 142.599 32.5592 142.833 32.7752C143.067 32.9912 143.184 33.2792 143.184 33.6392C143.184 33.9632 143.067 34.2332 142.833 34.4492C142.599 34.6652 142.293 34.7732 141.915 34.7732H135.678ZM153.346 46.8152C152.104 46.8152 150.988 46.5542 149.998 46.0322C149.026 45.4922 148.252 44.7092 147.676 43.6832C147.118 42.6572 146.839 41.3972 146.839 39.9032V33.2612C146.839 32.8652 146.965 32.5412 147.217 32.2892C147.487 32.0192 147.82 31.8842 148.216 31.8842C148.612 31.8842 148.936 32.0192 149.188 32.2892C149.458 32.5412 149.593 32.8652 149.593 33.2612V39.9032C149.593 40.9112 149.782 41.7482 150.16 42.4142C150.538 43.0622 151.051 43.5482 151.699 43.8722C152.347 44.1782 153.076 44.3312 153.886 44.3312C154.66 44.3312 155.344 44.1782 155.938 43.8722C156.55 43.5662 157.036 43.1522 157.396 42.6302C157.756 42.1082 157.936 41.5232 157.936 40.8752H159.637C159.637 41.9912 159.358 42.9992 158.8 43.8992C158.26 44.7992 157.513 45.5102 156.559 46.0322C155.623 46.5542 154.552 46.8152 153.346 46.8152ZM159.313 46.6802C158.917 46.6802 158.584 46.5542 158.314 46.3022C158.062 46.0322 157.936 45.6992 157.936 45.3032V33.2612C157.936 32.8472 158.062 32.5142 158.314 32.2622C158.584 32.0102 158.917 31.8842 159.313 31.8842C159.727 31.8842 160.06 32.0102 160.312 32.2622C160.564 32.5142 160.69 32.8472 160.69 33.2612V45.3032C160.69 45.6992 160.564 46.0322 160.312 46.3022C160.06 46.5542 159.727 46.6802 159.313 46.6802ZM166.864 37.4462C166.864 36.3662 167.125 35.4032 167.647 34.5572C168.187 33.6932 168.907 33.0092 169.807 32.5052C170.707 32.0012 171.697 31.7492 172.777 31.7492C173.857 31.7492 174.658 31.9292 175.18 32.2892C175.72 32.6312 175.927 33.0452 175.801 33.5312C175.747 33.7832 175.639 33.9812 175.477 34.1252C175.333 34.2512 175.162 34.3322 174.964 34.3682C174.766 34.4042 174.55 34.3952 174.316 34.3412C173.164 34.1072 172.129 34.0892 171.211 34.2872C170.293 34.4852 169.564 34.8542 169.024 35.3942C168.502 35.9342 168.241 36.6182 168.241 37.4462H166.864ZM166.891 46.6802C166.459 46.6802 166.126 46.5722 165.892 46.3562C165.658 46.1222 165.541 45.7802 165.541 45.3302V33.2612C165.541 32.8292 165.658 32.4962 165.892 32.2622C166.126 32.0282 166.459 31.9112 166.891 31.9112C167.341 31.9112 167.674 32.0282 167.89 32.2622C168.124 32.4782 168.241 32.8112 168.241 33.2612V45.3302C168.241 45.7622 168.124 46.0952 167.89 46.3292C167.674 46.5632 167.341 46.6802 166.891 46.6802ZM191.145 46.7072C190.749 46.7072 190.416 46.5812 190.146 46.3292C189.894 46.0592 189.768 45.7262 189.768 45.3302V38.6882C189.768 37.6622 189.579 36.8252 189.201 36.1772C188.823 35.5292 188.31 35.0522 187.662 34.7462C187.032 34.4222 186.303 34.2602 185.475 34.2602C184.719 34.2602 184.035 34.4132 183.423 34.7192C182.811 35.0252 182.325 35.4392 181.965 35.9612C181.605 36.4652 181.425 37.0502 181.425 37.7162H179.724C179.724 36.5822 179.994 35.5742 180.534 34.6922C181.092 33.7922 181.848 33.0812 182.802 32.5592C183.756 32.0372 184.827 31.7762 186.015 31.7762C187.257 31.7762 188.364 32.0462 189.336 32.5862C190.326 33.1082 191.1 33.8822 191.658 34.9082C192.234 35.9342 192.522 37.1942 192.522 38.6882V45.3302C192.522 45.7262 192.387 46.0592 192.117 46.3292C191.865 46.5812 191.541 46.7072 191.145 46.7072ZM180.048 46.7072C179.652 46.7072 179.319 46.5812 179.049 46.3292C178.797 46.0592 178.671 45.7262 178.671 45.3302V33.2882C178.671 32.8742 178.797 32.5412 179.049 32.2892C179.319 32.0372 179.652 31.9112 180.048 31.9112C180.462 31.9112 180.795 32.0372 181.047 32.2892C181.299 32.5412 181.425 32.8742 181.425 33.2882V45.3302C181.425 45.7262 181.299 46.0592 181.047 46.3292C180.795 46.5812 180.462 46.7072 180.048 46.7072Z" fill="#EE2654"/>
        <path d="M51.636 9.86C51.968 9.86 52.26 9.816 52.512 9.728C52.768 9.64 52.982 9.518 53.154 9.362C53.33 9.202 53.462 9.012 53.55 8.792C53.638 8.572 53.682 8.33 53.682 8.066C53.682 7.518 53.512 7.09 53.172 6.782C52.836 6.474 52.324 6.32 51.636 6.32H50.256V9.86H51.636ZM51.636 5.402C52.18 5.402 52.652 5.466 53.052 5.594C53.456 5.718 53.79 5.896 54.054 6.128C54.318 6.36 54.514 6.64 54.642 6.968C54.774 7.296 54.84 7.662 54.84 8.066C54.84 8.466 54.77 8.832 54.63 9.164C54.49 9.496 54.284 9.782 54.012 10.022C53.744 10.262 53.41 10.45 53.01 10.586C52.614 10.718 52.156 10.784 51.636 10.784H50.256V14H49.098V5.402H51.636ZM58.2986 7.826C58.7426 7.826 59.1426 7.9 59.4986 8.048C59.8546 8.196 60.1586 8.406 60.4106 8.678C60.6626 8.95 60.8546 9.28 60.9866 9.668C61.1226 10.052 61.1906 10.482 61.1906 10.958C61.1906 11.438 61.1226 11.87 60.9866 12.254C60.8546 12.638 60.6626 12.966 60.4106 13.238C60.1586 13.51 59.8546 13.72 59.4986 13.868C59.1426 14.012 58.7426 14.084 58.2986 14.084C57.8506 14.084 57.4466 14.012 57.0866 13.868C56.7306 13.72 56.4266 13.51 56.1746 13.238C55.9226 12.966 55.7286 12.638 55.5926 12.254C55.4606 11.87 55.3946 11.438 55.3946 10.958C55.3946 10.482 55.4606 10.052 55.5926 9.668C55.7286 9.28 55.9226 8.95 56.1746 8.678C56.4266 8.406 56.7306 8.196 57.0866 8.048C57.4466 7.9 57.8506 7.826 58.2986 7.826ZM58.2986 13.25C58.8986 13.25 59.3466 13.05 59.6426 12.65C59.9386 12.246 60.0866 11.684 60.0866 10.964C60.0866 10.24 59.9386 9.676 59.6426 9.272C59.3466 8.868 58.8986 8.666 58.2986 8.666C57.9946 8.666 57.7286 8.718 57.5006 8.822C57.2766 8.926 57.0886 9.076 56.9366 9.272C56.7886 9.468 56.6766 9.71 56.6006 9.998C56.5286 10.282 56.4926 10.604 56.4926 10.964C56.4926 11.684 56.6406 12.246 56.9366 12.65C57.2366 13.05 57.6906 13.25 58.2986 13.25ZM70.8335 7.922L68.8655 14H68.0195C67.9155 14 67.8435 13.932 67.8035 13.796L66.4595 9.674C66.4275 9.582 66.4015 9.49 66.3815 9.398C66.3615 9.302 66.3415 9.208 66.3215 9.116C66.3015 9.208 66.2815 9.302 66.2615 9.398C66.2415 9.49 66.2155 9.584 66.1835 9.68L64.8155 13.796C64.7795 13.932 64.6995 14 64.5755 14H63.7715L61.8035 7.922H62.6435C62.7275 7.922 62.7975 7.944 62.8535 7.988C62.9135 8.032 62.9535 8.084 62.9735 8.144L64.1375 12.056C64.2055 12.344 64.2595 12.616 64.2995 12.872C64.3355 12.74 64.3715 12.606 64.4075 12.47C64.4475 12.334 64.4895 12.196 64.5335 12.056L65.8175 8.12C65.8375 8.06 65.8715 8.01 65.9195 7.97C65.9715 7.93 66.0335 7.91 66.1055 7.91H66.5735C66.6535 7.91 66.7195 7.93 66.7715 7.97C66.8235 8.01 66.8595 8.06 66.8795 8.12L68.1335 12.056C68.1775 12.196 68.2175 12.334 68.2535 12.47C68.2895 12.606 68.3235 12.74 68.3555 12.872C68.3755 12.74 68.3995 12.608 68.4275 12.476C68.4595 12.34 68.4935 12.2 68.5295 12.056L69.7175 8.144C69.7375 8.08 69.7755 8.028 69.8315 7.988C69.8875 7.944 69.9535 7.922 70.0295 7.922H70.8335ZM75.8593 10.298C75.8593 10.05 75.8233 9.824 75.7513 9.62C75.6833 9.412 75.5813 9.234 75.4453 9.086C75.3133 8.934 75.1513 8.818 74.9593 8.738C74.7673 8.654 74.5493 8.612 74.3053 8.612C73.7933 8.612 73.3873 8.762 73.0873 9.062C72.7913 9.358 72.6073 9.77 72.5353 10.298H75.8593ZM76.7233 13.148C76.5913 13.308 76.4333 13.448 76.2493 13.568C76.0653 13.684 75.8673 13.78 75.6553 13.856C75.4473 13.932 75.2313 13.988 75.0073 14.024C74.7833 14.064 74.5613 14.084 74.3413 14.084C73.9213 14.084 73.5333 14.014 73.1773 13.874C72.8253 13.73 72.5193 13.522 72.2593 13.25C72.0033 12.974 71.8033 12.634 71.6593 12.23C71.5153 11.826 71.4433 11.362 71.4433 10.838C71.4433 10.414 71.5073 10.018 71.6353 9.65C71.7673 9.282 71.9553 8.964 72.1993 8.696C72.4433 8.424 72.7413 8.212 73.0933 8.06C73.4453 7.904 73.8413 7.826 74.2813 7.826C74.6453 7.826 74.9813 7.888 75.2893 8.012C75.6013 8.132 75.8693 8.308 76.0933 8.54C76.3213 8.768 76.4993 9.052 76.6273 9.392C76.7553 9.728 76.8193 10.112 76.8193 10.544C76.8193 10.712 76.8013 10.824 76.7653 10.88C76.7293 10.936 76.6613 10.964 76.5613 10.964H72.4993C72.5113 11.348 72.5633 11.682 72.6553 11.966C72.7513 12.25 72.8833 12.488 73.0513 12.68C73.2193 12.868 73.4193 13.01 73.6513 13.106C73.8833 13.198 74.1433 13.244 74.4313 13.244C74.6993 13.244 74.9293 13.214 75.1213 13.154C75.3173 13.09 75.4853 13.022 75.6253 12.95C75.7653 12.878 75.8813 12.812 75.9733 12.752C76.0693 12.688 76.1513 12.656 76.2193 12.656C76.3073 12.656 76.3753 12.69 76.4233 12.758L76.7233 13.148ZM79.1452 9.14C79.3372 8.724 79.5732 8.4 79.8532 8.168C80.1332 7.932 80.4752 7.814 80.8792 7.814C81.0072 7.814 81.1292 7.828 81.2452 7.856C81.3652 7.884 81.4712 7.928 81.5632 7.988L81.4852 8.786C81.4612 8.886 81.4012 8.936 81.3052 8.936C81.2492 8.936 81.1672 8.924 81.0592 8.9C80.9512 8.876 80.8292 8.864 80.6932 8.864C80.5012 8.864 80.3292 8.892 80.1772 8.948C80.0292 9.004 79.8952 9.088 79.7752 9.2C79.6592 9.308 79.5532 9.444 79.4572 9.608C79.3652 9.768 79.2812 9.952 79.2052 10.16V14H78.1312V7.922H78.7432C78.8592 7.922 78.9392 7.944 78.9832 7.988C79.0272 8.032 79.0572 8.108 79.0732 8.216L79.1452 9.14ZM86.3242 10.298C86.3242 10.05 86.2882 9.824 86.2162 9.62C86.1482 9.412 86.0462 9.234 85.9102 9.086C85.7782 8.934 85.6162 8.818 85.4242 8.738C85.2322 8.654 85.0142 8.612 84.7702 8.612C84.2582 8.612 83.8522 8.762 83.5522 9.062C83.2562 9.358 83.0722 9.77 83.0002 10.298H86.3242ZM87.1882 13.148C87.0562 13.308 86.8982 13.448 86.7142 13.568C86.5302 13.684 86.3322 13.78 86.1202 13.856C85.9122 13.932 85.6962 13.988 85.4722 14.024C85.2482 14.064 85.0262 14.084 84.8062 14.084C84.3862 14.084 83.9982 14.014 83.6422 13.874C83.2902 13.73 82.9842 13.522 82.7242 13.25C82.4682 12.974 82.2682 12.634 82.1242 12.23C81.9802 11.826 81.9082 11.362 81.9082 10.838C81.9082 10.414 81.9722 10.018 82.1002 9.65C82.2322 9.282 82.4202 8.964 82.6642 8.696C82.9082 8.424 83.2062 8.212 83.5582 8.06C83.9102 7.904 84.3062 7.826 84.7462 7.826C85.1102 7.826 85.4462 7.888 85.7542 8.012C86.0662 8.132 86.3342 8.308 86.5582 8.54C86.7862 8.768 86.9642 9.052 87.0922 9.392C87.2202 9.728 87.2842 10.112 87.2842 10.544C87.2842 10.712 87.2662 10.824 87.2302 10.88C87.1942 10.936 87.1262 10.964 87.0262 10.964H82.9642C82.9762 11.348 83.0282 11.682 83.1202 11.966C83.2162 12.25 83.3482 12.488 83.5162 12.68C83.6842 12.868 83.8842 13.01 84.1162 13.106C84.3482 13.198 84.6082 13.244 84.8962 13.244C85.1642 13.244 85.3942 13.214 85.5862 13.154C85.7822 13.09 85.9502 13.022 86.0902 12.95C86.2302 12.878 86.3462 12.812 86.4382 12.752C86.5342 12.688 86.6162 12.656 86.6842 12.656C86.7722 12.656 86.8402 12.69 86.8882 12.758L87.1882 13.148ZM92.556 9.368C92.356 9.1 92.14 8.914 91.908 8.81C91.676 8.702 91.416 8.648 91.128 8.648C90.564 8.648 90.13 8.85 89.826 9.254C89.522 9.658 89.37 10.234 89.37 10.982C89.37 11.378 89.404 11.718 89.472 12.002C89.54 12.282 89.64 12.514 89.772 12.698C89.904 12.878 90.066 13.01 90.258 13.094C90.45 13.178 90.668 13.22 90.912 13.22C91.264 13.22 91.57 13.14 91.83 12.98C92.094 12.82 92.336 12.594 92.556 12.302V9.368ZM93.624 5.162V14H92.988C92.836 14 92.74 13.926 92.7 13.778L92.604 13.04C92.344 13.352 92.048 13.604 91.716 13.796C91.384 13.988 91 14.084 90.564 14.084C90.216 14.084 89.9 14.018 89.616 13.886C89.332 13.75 89.09 13.552 88.89 13.292C88.69 13.032 88.536 12.708 88.428 12.32C88.32 11.932 88.266 11.486 88.266 10.982C88.266 10.534 88.326 10.118 88.446 9.734C88.566 9.346 88.738 9.01 88.962 8.726C89.186 8.442 89.46 8.22 89.784 8.06C90.112 7.896 90.48 7.814 90.888 7.814C91.26 7.814 91.578 7.878 91.842 8.006C92.11 8.13 92.348 8.304 92.556 8.528V5.162H93.624ZM99.4552 12.536C99.6512 12.8 99.8652 12.986 100.097 13.094C100.333 13.202 100.591 13.256 100.871 13.256C101.443 13.256 101.881 13.054 102.185 12.65C102.489 12.246 102.641 11.644 102.641 10.844C102.641 10.1 102.505 9.554 102.233 9.206C101.965 8.854 101.581 8.678 101.081 8.678C100.733 8.678 100.429 8.758 100.169 8.918C99.9132 9.078 99.6752 9.304 99.4552 9.596V12.536ZM99.4552 8.798C99.7112 8.502 99.9992 8.266 100.319 8.09C100.643 7.914 101.015 7.826 101.435 7.826C101.791 7.826 102.111 7.894 102.395 8.03C102.683 8.166 102.927 8.364 103.127 8.624C103.327 8.88 103.479 9.192 103.583 9.56C103.691 9.928 103.745 10.342 103.745 10.802C103.745 11.294 103.685 11.742 103.565 12.146C103.445 12.55 103.271 12.896 103.043 13.184C102.819 13.468 102.545 13.69 102.221 13.85C101.897 14.006 101.533 14.084 101.129 14.084C100.729 14.084 100.391 14.01 100.115 13.862C99.8432 13.71 99.6052 13.496 99.4012 13.22L99.3472 13.772C99.3152 13.924 99.2232 14 99.0712 14H98.3812V5.162H99.4552V8.798ZM110.188 7.922L106.798 15.794C106.762 15.874 106.716 15.938 106.66 15.986C106.608 16.034 106.526 16.058 106.414 16.058H105.622L106.732 13.646L104.224 7.922H105.148C105.24 7.922 105.312 7.946 105.364 7.994C105.42 8.038 105.458 8.088 105.478 8.144L107.104 11.972C107.168 12.14 107.222 12.316 107.266 12.5C107.322 12.312 107.382 12.134 107.446 11.966L109.024 8.144C109.048 8.08 109.088 8.028 109.144 7.988C109.204 7.944 109.27 7.922 109.342 7.922H110.188Z" fill="white"/>
    </symbol>
    <symbol viewBox="0 0 17 13" id="choose"> 
        <path d="M15.0655 0.346129L5.66662 10.1471L1.93449 6.25529C1.49248 5.79378 0.773938 5.79378 0.331931 6.25529C-0.110644 6.71679 -0.110644 7.46489 0.331931 7.9264L4.86534 12.6537C5.08634 12.8848 5.37648 13 5.66662 13C5.95676 13 6.24689 12.8848 6.4679 12.6537L16.6681 2.01724C17.1106 1.55573 17.1106 0.807634 16.6681 0.346129C16.2255 -0.115376 15.5081 -0.115376 15.0655 0.346129Z"  />
    </symbol>
    <symbol viewBox="0 0 16 16" id="close"> 
        <path d="M1.14286 16C0.850446 16 0.558036 15.8884 0.334821 15.6652C-0.111607 15.2188 -0.111607 14.4955 0.334821 14.0491L14.0491 0.334821C14.4955 -0.111607 15.2188 -0.111607 15.6652 0.334821C16.1116 0.78125 16.1116 1.50446 15.6652 1.95089L1.95089 15.6652C1.72768 15.8884 1.43527 16 1.14286 16Z"  />
        <path d="M14.8571 16C14.5647 16 14.2723 15.8884 14.0491 15.6652L0.334821 1.95089C-0.111607 1.50446 -0.111607 0.78125 0.334821 0.334821C0.78125 -0.111607 1.50446 -0.111607 1.95089 0.334821L15.6652 14.0491C16.1116 14.4955 16.1116 15.2188 15.6652 15.6652C15.442 15.8884 15.1496 16 14.8571 16Z"  />
    </symbol>
    <symbol viewBox="0 0 58 50" id="photo">    
        <path d="M8.39474 50C3.77046 50 0 46.1401 0 41.4063V16.4062C0 11.6724 3.77046 7.8125 8.39474 7.8125H16.6225L20.0091 0.878906C20.1334 0.617448 20.3264 0.396692 20.5666 0.241423C20.8067 0.0861533 21.0844 0.00252921 21.3684 0H36.6316C36.9156 0.00252921 37.1933 0.0861533 37.4334 0.241423C37.6736 0.396692 37.8666 0.617448 37.9909 0.878906L41.3775 7.8125H49.6053C54.2295 7.8125 58 11.6724 58 16.4062V41.4063C58 46.1401 54.2295 50 49.6053 50H8.39474ZM8.39474 46.875H49.6053C52.5912 46.875 54.9474 44.4629 54.9474 41.4063V16.4062C54.9474 13.3496 52.5912 10.9375 49.6053 10.9375H40.4474C40.1659 10.9372 39.8899 10.8573 39.65 10.7065C39.4101 10.5557 39.2156 10.3399 39.088 10.083L35.6776 3.125H22.3224L18.912 10.083C18.7844 10.3399 18.5899 10.5557 18.35 10.7065C18.1101 10.8573 17.8341 10.9372 17.5526 10.9375H8.39474C5.4088 10.9375 3.05263 13.3496 3.05263 16.4062V41.4063C3.05263 44.4629 5.4088 46.875 8.39474 46.875ZM29 41.4063C22.2745 41.4063 16.7895 35.7913 16.7895 28.9062C16.7895 22.0212 22.2745 16.4062 29 16.4062C35.7256 16.4062 41.2105 22.0212 41.2105 28.9062C41.2105 35.7913 35.7256 41.4063 29 41.4063ZM29 38.2813C34.0758 38.2813 38.1579 34.1024 38.1579 28.9062C38.1579 23.7101 34.0758 19.5312 29 19.5312C23.9243 19.5312 19.8421 23.7102 19.8421 28.9062C19.8421 34.1024 23.9243 38.2813 29 38.2813Z" />
    </symbol>
    <symbol viewBox="0 0 12 13"  id="plus">  
        <path d="M5.9415 12.112C5.7335 12.112 5.5575 12.048 5.4135 11.92C5.2855 11.776 5.2215 11.6 5.2215 11.392V7.24H1.0935C0.8855 7.24 0.7095 7.176 0.5655 7.048C0.4375 6.904 0.3735 6.728 0.3735 6.52C0.3735 6.312 0.4375 6.144 0.5655 6.016C0.7095 5.872 0.8855 5.8 1.0935 5.8H5.2215V1.648C5.2215 1.44 5.2855 1.272 5.4135 1.144C5.5575 1 5.7335 0.927999 5.9415 0.927999C6.1655 0.927999 6.3415 1 6.4695 1.144C6.6135 1.272 6.6855 1.44 6.6855 1.648V5.8H10.8135C11.0215 5.8 11.1895 5.872 11.3175 6.016C11.4615 6.144 11.5335 6.312 11.5335 6.52C11.5335 6.728 11.4615 6.904 11.3175 7.048C11.1895 7.176 11.0215 7.24 10.8135 7.24H6.6855V11.392C6.6855 11.6 6.6135 11.776 6.4695 11.92C6.3415 12.048 6.1655 12.112 5.9415 12.112Z"  />
    </symbol>
    <symbol viewBox="0 0 22 20"  id="star">   
        <path d="M11 1.61804L12.9941 7.75532L13.1064 8.10081H13.4697H19.9228L14.7021 11.8939L14.4082 12.1074L14.5205 12.4529L16.5146 18.5902L11.2939 14.7971L11 14.5836L10.7061 14.7971L5.48542 18.5902L7.47954 12.4529L7.5918 12.1074L7.29791 11.8939L2.07722 8.10081H8.53035H8.89362L9.00587 7.75532L11 1.61804Z"  />
    </symbol>
    <symbol viewBox="0 0 40 37"  id="reduse">    
        <path d="M7.17132 10.3778L15.832 15.3328C15.9851 15.4204 16.1671 15.4441 16.3379 15.3988C16.5086 15.3534 16.6543 15.2427 16.7427 15.091L20.4147 8.78687L21.542 10.7226L19.2333 12.044C19.1062 12.1164 19.0066 12.2284 18.9502 12.3625C18.8938 12.4967 18.8835 12.6456 18.9211 12.7861C18.9587 12.9266 19.042 13.0509 19.1581 13.1397C19.2742 13.2285 19.4167 13.2769 19.5633 13.2774L28.4033 13.3164L25.012 15.2568C24.8589 15.3444 24.7472 15.4887 24.7014 15.6579C24.6556 15.8272 24.6796 16.0075 24.768 16.1593L28.44 22.4627H26.1847V19.82C26.1839 19.6752 26.1352 19.5347 26.0459 19.42C25.9567 19.3053 25.8319 19.2229 25.6908 19.1853C25.5497 19.1478 25.4 19.1573 25.2649 19.2123C25.1297 19.2672 25.0165 19.3647 24.9427 19.4897L20.276 27.4177C20.2184 27.5154 20.1872 27.6261 20.1852 27.7393C20.1832 27.8524 20.2106 27.9642 20.2647 28.0638L24.9313 36.6525C24.9884 36.7575 25.073 36.8452 25.1763 36.9064C25.2796 36.9676 25.3977 36.9999 25.518 37C25.5731 36.9999 25.6279 36.9932 25.6813 36.9802C25.8253 36.9441 25.9529 36.8615 26.0441 36.7454C26.1353 36.6294 26.1847 36.4864 26.1847 36.3393V33.694H31.7513C31.8684 33.694 31.9833 33.6635 32.0847 33.6055C32.186 33.5475 32.2702 33.4641 32.3287 33.3637L39.9107 20.3485C39.9692 20.2481 40 20.1342 40 20.0182C40 19.9022 39.9692 19.7883 39.9107 19.6879L34.5833 10.5436C34.5396 10.4684 34.4813 10.4024 34.4118 10.3496C34.3422 10.2967 34.2629 10.2579 34.1783 10.2355C34.0936 10.213 34.0053 10.2073 33.9185 10.2187C33.8316 10.2301 33.7479 10.2583 33.672 10.3018L29.6427 12.6075L34.5673 4.70527C34.6456 4.58009 34.6793 4.43262 34.6633 4.28625C34.6473 4.13988 34.5824 4.003 34.4789 3.89735C34.3755 3.7917 34.2393 3.72333 34.0922 3.70309C33.945 3.68284 33.7953 3.71189 33.6667 3.78562L31.3573 5.10696L28.574 0.330334C28.5158 0.230385 28.4321 0.147297 28.3314 0.0893398C28.2307 0.0313832 28.1165 0.000580822 28 0H12.8327C12.7156 2.94606e-06 12.6007 0.0305312 12.4993 0.0885167C12.398 0.146502 12.3138 0.229902 12.2553 0.330334L6.92732 9.47529C6.83892 9.62703 6.81496 9.80736 6.86072 9.9766C6.90648 10.1458 7.01821 10.2901 7.17132 10.3778ZM31.3667 32.3727H25.518C25.3412 32.3727 25.1716 32.4423 25.0466 32.5662C24.9216 32.6901 24.8513 32.8581 24.8513 33.0334V33.7165L21.616 27.7612L24.8513 22.2645V23.1233C24.8513 23.2986 24.9216 23.4666 25.0466 23.5905C25.1716 23.7144 25.3412 23.784 25.518 23.784H36.37L31.3667 32.3727ZM33.7613 11.7771L34.9833 13.874H32.6667V15.1953H35.7533L36.5227 16.5167H34V17.838H37.2927L38.0627 19.1593H35.3333V20.4807H38.2947L37.14 22.4627H29.98L26.256 16.0714L33.7613 11.7771ZM30.5333 6.3424C30.6218 6.49414 30.7674 6.60486 30.9381 6.65021C31.1089 6.69555 31.2909 6.67181 31.444 6.58421L32.0407 6.24264L28.4547 11.9977L22.0327 11.9686L22.784 11.5392C22.9371 11.4516 23.0488 11.3073 23.0946 11.1381C23.1404 10.9688 23.1164 10.7885 23.028 10.6367L17.6047 1.32133H27.612L30.5333 6.3424ZM13.2173 1.32133H16.0667L16.8367 2.64267H15.3333V3.964H17.6047L18.374 5.28534H16.6667V6.60667H19.144L19.6447 7.46554L19.3333 8.00068V7.928H16.6667V9.24934H18.606L15.9213 13.8582L8.41599 9.56382L13.2173 1.32133Z" fill="white"/>
        <path d="M6.66666 31.6559V31.712H6.69932L7.67132 33.3802C7.72983 33.4806 7.81399 33.564 7.91533 33.622C8.01668 33.68 8.13164 33.7105 8.24866 33.7105H18.6667C18.8435 33.7105 19.013 33.6409 19.1381 33.517C19.2631 33.3931 19.3333 33.2251 19.3333 33.0499V23.1399C19.3333 22.9646 19.2631 22.7966 19.1381 22.6727C19.013 22.5488 18.8435 22.4792 18.6667 22.4792H11.56L12.6873 20.5441L14.9967 21.8654C15.1236 21.9381 15.2711 21.9673 15.4165 21.9485C15.5619 21.9297 15.6969 21.864 15.8008 21.7614C15.9046 21.6589 15.9715 21.5253 15.991 21.3813C16.0105 21.2373 15.9815 21.091 15.9087 20.9649L11.314 12.996C11.2571 12.8982 11.1759 12.8165 11.0781 12.7587C10.9803 12.7009 10.8692 12.6688 10.7553 12.6656L0.916651 12.3743C0.767678 12.3676 0.620883 12.4116 0.500602 12.499C0.38032 12.5863 0.293776 12.7118 0.255316 12.8546C0.214139 12.9965 0.222097 13.1479 0.277923 13.2848C0.333748 13.4217 0.434223 13.5361 0.563317 13.6097L2.87265 14.9311L0.0893165 19.7057C0.0308042 19.8062 0 19.9201 0 20.036C0 20.152 0.0308042 20.2659 0.0893165 20.3664L6.66666 31.6559ZM18 23.8005V32.3892H8.63332L8.23866 31.712H9.99999V30.3907H7.46666L7.20732 29.9461L7.72066 29.0694H10.6667V27.748H8.49066L9.25999 26.4267H12V25.1053H10.03L10.79 23.8005H18ZM4.36065 15.0163C4.44906 14.8646 4.47301 14.6842 4.42725 14.515C4.38149 14.3457 4.26977 14.2014 4.11665 14.1138L3.51665 13.7729L10.3387 13.9711L13.5247 19.4969L12.7733 19.0669C12.6202 18.9792 12.4382 18.9555 12.2675 19.0009C12.0967 19.0462 11.9511 19.1569 11.8627 19.3087L6.43666 28.6241L1.43665 20.0354L4.36065 15.0163Z" fill="white"/>
    </symbol>
    <symbol viewBox="0 0 40 36"  id="discount">     
        <path d="M36.7444 10.7289C35.7711 10.7045 34.8002 11.0844 34.106 11.7784L26.4624 19.4203C26.3094 18.8646 26.0148 18.3552 25.5965 17.9358C24.954 17.2914 24.0983 16.9367 23.1873 16.9367H15.6254C13.8404 16.9367 12.1627 17.6315 10.9009 18.893L6.88067 22.9126L6.22561 22.2577C5.90009 21.9323 5.37275 21.9323 5.04723 22.2577L0.24417 27.0592C0.0720511 27.2313 -0.0162463 27.4697 0.00247106 27.7122C0.0211885 27.9546 0.144886 28.1771 0.341419 28.3207L10.6185 35.8393C10.7658 35.9471 10.9383 36 11.11 36C11.3249 36 11.5381 35.9174 11.6996 35.7559L15.1241 32.3322C15.4496 32.0068 15.4496 31.4796 15.1241 31.1541L14.2213 30.2515L15.5282 28.9452L24.6456 28.9488C24.6464 28.9488 24.6468 28.9488 24.6476 28.9488C25.8679 28.9488 27.0158 28.4737 27.8796 27.6105L39.0039 16.4884C39.6399 15.8526 39.9939 15.0024 40 14.0891C40 13.2413 39.6891 12.4326 39.1292 11.8163C38.5242 11.1406 37.677 10.7545 36.7444 10.7289ZM11.0262 34.073L2.11022 27.5498L5.63642 24.0249L13.3565 31.7432L11.0262 34.073ZM37.8255 15.3103L26.7013 26.4319C26.1524 26.9807 25.4232 27.2826 24.6476 27.2826C24.6472 27.2826 24.6468 27.2826 24.6464 27.2826L15.1835 27.2789C14.9626 27.2789 14.7502 27.3668 14.5939 27.523L13.0428 29.0733L8.05911 24.0908L12.0793 20.0711C13.0265 19.1245 14.2859 18.603 15.6254 18.603H23.1873C23.6524 18.603 24.0886 18.784 24.4161 19.1123C24.7404 19.4377 24.9186 19.8698 24.917 20.3392C24.9193 20.605 24.8438 20.8589 24.7261 21.0945C24.5631 21.1743 24.3878 21.2373 24.1862 21.2655C24.1126 21.2769 24.0393 21.2826 23.8839 21.2867L17.6282 21.9079C17.17 21.9534 16.8355 22.3615 16.8811 22.8191C16.9238 23.2491 17.2864 23.5701 17.7096 23.5701C17.7368 23.5701 17.7649 23.5689 17.7926 23.566L23.9661 22.9489C24.124 22.9489 24.2818 22.9367 24.4283 22.9139C24.8806 22.8509 25.2937 22.6948 25.671 22.4736C25.6863 22.4673 25.6999 22.4588 25.7149 22.4516C25.7451 22.4333 25.7797 22.4234 25.8093 22.4042C25.8326 22.389 25.8451 22.3652 25.8663 22.3481C25.891 22.3286 25.9204 22.3183 25.9432 22.2956L35.2844 12.9565C35.6559 12.5847 36.1792 12.3878 36.6984 12.3947C37.1688 12.4078 37.5911 12.5969 37.8914 12.9321C38.1763 13.2458 38.3333 13.6566 38.3333 14.0834C38.3301 14.5504 38.1498 14.9861 37.8255 15.3103Z" fill="white"/>
        <path d="M20.9505 5.78619C22.273 4.46448 22.273 2.3133 20.9505 0.991587C19.6281 -0.330529 17.4772 -0.330529 16.1548 0.991587C14.8324 2.3133 14.8324 4.46448 16.1548 5.78619C16.816 6.44725 17.6843 6.77757 18.5527 6.77757C19.421 6.77757 20.2893 6.44725 20.9505 5.78619ZM17.3332 2.16969C17.6693 1.83367 18.1112 1.66566 18.5527 1.66566C18.9942 1.66566 19.4361 1.83367 19.7722 2.16969C20.4444 2.84214 20.4444 3.93563 19.7722 4.60808C19.1 5.28012 18.0054 5.28012 17.3332 4.60808C16.661 3.93563 16.661 2.84214 17.3332 2.16969Z" fill="white"/>
        <path d="M26.3456 14.5683C27.214 14.5683 28.0823 14.238 28.7435 13.5769C30.0659 12.2552 30.0659 10.104 28.7435 8.78231C27.4211 7.46019 25.2702 7.46019 23.9478 8.78231C22.6253 10.104 22.6253 12.2552 23.9478 13.5769C24.609 14.238 25.4773 14.5683 26.3456 14.5683ZM25.1262 9.96041C25.4623 9.62439 25.9041 9.45638 26.3456 9.45638C26.7871 9.45638 27.229 9.62439 27.5651 9.96041C28.2373 10.6329 28.2373 11.7264 27.5651 12.3988C26.8929 13.0708 25.7984 13.0708 25.1262 12.3988C24.454 11.7264 24.454 10.6329 25.1262 9.96041Z" fill="white"/>
        <path d="M18.2796 12.2857C18.4929 12.2857 18.7061 12.2044 18.8688 12.0416L27.2074 3.70498C27.533 3.37953 27.533 2.85231 27.2074 2.52687C26.8819 2.20142 26.3546 2.20142 26.0291 2.52687L17.6904 10.8635C17.3649 11.189 17.3649 11.7162 17.6904 12.0416C17.8532 12.2044 18.0664 12.2857 18.2796 12.2857Z" fill="white"/>
    </symbol>
    <symbol viewBox="0 0 28 40" id="as-store">      
        <path d="M6.40987 5.52453H0.670185C0.492441 5.52453 0.321977 5.59707 0.196293 5.7262C0.0706089 5.85532 0 6.03045 0 6.21306V21.3015C0 21.4841 0.0706089 21.6592 0.196293 21.7884C0.321977 21.9175 0.492441 21.99 0.670185 21.99H6.40987C6.58762 21.99 6.75808 21.9175 6.88377 21.7884C7.00945 21.6592 7.08006 21.4841 7.08006 21.3015V20.076H7.73438C8.14662 20.0763 8.55825 20.1083 8.96585 20.1716L7.03482 22.8768C5.69216 24.7485 5.00436 27.0312 5.08299 29.3549C5.16162 31.6785 6.00206 33.9067 7.46799 35.678C8.5824 37.0335 9.97152 38.1225 11.5382 38.869C13.105 39.6156 14.8115 40.0015 16.5385 40C18.2655 40.0015 19.972 39.6155 21.5387 38.869C23.1054 38.1224 24.4945 37.0334 25.609 35.678C27.0749 33.9067 27.9153 31.6785 27.9939 29.3549C28.0726 27.0313 27.3848 24.7485 26.0422 22.8768L24.0927 20.1457C24.0927 20.1288 24.0952 20.1125 24.0952 20.0957C24.0954 19.6397 23.9646 19.1938 23.719 18.814C24.0183 18.6323 24.273 18.3824 24.4634 18.0835C24.6537 17.7847 24.7746 17.4448 24.8167 17.0903C24.8588 16.7357 24.821 16.376 24.7062 16.0389C24.5914 15.7017 24.4027 15.3962 24.1546 15.146C24.5846 14.7042 24.8282 14.1063 24.8329 13.4816C24.8376 12.8568 24.603 12.2552 24.1797 11.8066C24.4505 11.5351 24.6473 11.1954 24.7507 10.8214C24.854 10.4474 24.8602 10.0522 24.7686 9.67496C24.6771 9.29776 24.491 8.95175 24.2289 8.67138C23.9667 8.39101 23.6377 8.18605 23.2745 8.07689C24.3545 7.47374 25.0145 6.1986 25.0145 4.53615V4.47304C25.0145 4.29043 24.9439 4.1153 24.8183 3.98618C24.6926 3.85705 24.5221 3.78451 24.3444 3.78451H22.2084C22.5693 2.87408 23.0033 1.99608 23.506 1.15963C23.5683 1.05585 23.6027 0.936918 23.6056 0.814999C23.6086 0.693081 23.5799 0.57255 23.5226 0.465734C23.4654 0.358919 23.3815 0.269652 23.2796 0.207063C23.1777 0.144475 23.0615 0.110811 22.9428 0.109514L12.8286 3.8916e-05C12.7081 -0.00127671 12.5895 0.0307876 12.4853 0.0928579C12.3811 0.154928 12.2951 0.24471 12.2364 0.352756C12.1776 0.460802 12.1483 0.583118 12.1515 0.706834C12.1547 0.83055 12.1903 0.951092 12.2546 1.05578L12.9058 2.1176C13.2354 2.65561 13.5355 3.21216 13.8047 3.78463H13.2217C10.8592 3.78463 10.2759 5.58386 9.96253 6.5502C9.91336 6.71574 9.8545 6.87807 9.78627 7.0363C9.08961 7.4742 8.45439 7.68719 7.84608 7.68719H7.08006V6.21306C7.08006 6.03045 7.00945 5.85532 6.88377 5.7262C6.75808 5.59707 6.58762 5.52453 6.40987 5.52453ZM5.73969 20.613H1.34037V6.90158H5.73969V20.613ZM24.9612 23.6913C26.125 25.3137 26.7211 27.2925 26.653 29.3068C26.5848 31.321 25.8563 33.2525 24.5856 34.788C23.596 35.9895 22.3634 36.955 20.9736 37.6172C19.5839 38.2794 18.0703 38.6225 16.5383 38.6225C15.0063 38.6225 13.4927 38.2794 12.1029 37.6172C10.7131 36.955 9.48049 35.9895 8.49091 34.788C7.22022 33.2525 6.49172 31.321 6.42358 29.3067C6.35543 27.2925 6.95164 25.3137 8.1155 23.6913L10.3771 20.5228C10.9471 20.7205 11.4944 20.9815 12.0093 21.3013C10.3598 22.7323 10.4559 24.9525 10.7923 26.047C10.8465 26.2203 10.9653 26.3644 11.1227 26.448C11.2801 26.5315 11.4632 26.5477 11.6321 26.4929C11.801 26.4381 11.942 26.3168 12.0241 26.1556C12.1063 25.9943 12.1229 25.8063 12.0705 25.6324C11.9498 25.1663 11.9115 24.6817 11.9573 24.2017C11.9918 23.733 12.1446 23.2817 12.4004 22.8921C12.6563 22.5025 13.0066 22.1881 13.4167 21.9798C14.6049 22.3796 15.8664 22.4246 17.1564 22.4246H18.718L18.8776 22.7203C19.4762 23.8286 19.7508 25.0907 19.6686 26.3554L19.6551 26.5662C19.6493 26.6564 19.6608 26.7469 19.6891 26.8326C19.7173 26.9182 19.7617 26.9973 19.8197 27.0653C19.8777 27.1333 19.9481 27.1889 20.027 27.229C20.1059 27.269 20.1918 27.2927 20.2796 27.2987C20.2945 27.2997 20.3095 27.3002 20.3243 27.3002C20.4942 27.3 20.6577 27.2335 20.7817 27.1142C20.9057 26.9949 20.981 26.8317 20.9923 26.6575L21.0059 26.4467C21.094 25.0888 20.8416 23.7304 20.2729 22.5013C20.6599 22.6527 21.833 23.3089 22.0551 25.733C22.0707 25.9035 22.1477 26.062 22.2709 26.1774C22.3942 26.2928 22.5549 26.3568 22.7216 26.357C22.7426 26.357 22.764 26.356 22.7853 26.3539C22.9622 26.3368 23.1253 26.2481 23.2387 26.1075C23.352 25.9668 23.4063 25.7857 23.3897 25.6039C23.2489 24.069 22.7846 23.0531 22.2615 22.3812C22.7425 22.2841 23.1797 22.0293 23.5076 21.6551L24.9612 23.6913ZM23.6283 5.16156C23.5098 5.96392 23.1009 7.08335 21.7432 7.08335H21.2556C21.3772 6.43418 21.5341 5.79253 21.7257 5.16145L23.6283 5.16156ZM14.5861 1.39625C14.6106 1.41084 14.6359 1.42383 14.662 1.43515C15.7221 1.88671 16.5737 3.30025 16.4144 4.34371C16.4008 4.43305 16.4044 4.52428 16.4251 4.61218C16.4458 4.70008 16.4831 4.78293 16.535 4.856C16.5868 4.92907 16.6522 4.99093 16.7274 5.03804C16.8025 5.08515 16.8859 5.1166 16.9729 5.13058C17.0075 5.13614 17.0425 5.13894 17.0775 5.13896C17.2372 5.13874 17.3915 5.08 17.5127 4.9733C17.6339 4.8666 17.7141 4.71895 17.7388 4.55692C17.899 3.50715 17.5011 2.32806 16.7782 1.41989L18.8965 1.44284C18.6708 2.11702 18.4729 3.06007 18.6442 4.03732C18.6757 4.21703 18.7754 4.37653 18.9214 4.48072C19.0674 4.58492 19.2476 4.62527 19.4226 4.5929C19.5975 4.56053 19.7528 4.4581 19.8542 4.30813C19.9556 4.15817 19.9949 3.97295 19.9634 3.79324C19.801 2.8666 20.1251 1.92951 20.33 1.45833L21.7839 1.47406C20.7968 3.36974 20.131 5.42423 19.815 7.54948L19.7414 8.04097L16.8652 8.09583C16.7945 8.08948 16.7257 8.06857 16.663 8.03434C16.6003 8.00012 16.545 7.95328 16.5003 7.89661C16.097 5.58546 15.2628 3.37613 14.0437 1.39006L14.5861 1.39625ZM7.84608 9.06435C8.72849 9.06435 9.61392 8.77161 10.5514 8.16927C10.929 7.92679 11.0705 7.4905 11.2343 6.98535C11.5806 5.91745 11.9257 5.16145 13.2217 5.16145H14.3807C14.6151 5.79943 14.8117 6.45144 14.9693 7.11387V7.53996C14.9693 7.56492 14.9706 7.58986 14.9733 7.61466C15.0821 8.63919 15.933 9.47276 16.87 9.47276H16.8824L22.6683 9.36237C22.8884 9.3631 23.0993 9.45363 23.2544 9.61404C23.4095 9.77446 23.4963 9.99161 23.4956 10.2177C23.4949 10.4439 23.4067 10.6605 23.2506 10.8198C23.0945 10.9792 22.8831 11.0683 22.663 11.0676H21.2825C21.2511 11.0679 21.2198 11.0704 21.1887 11.0751H20.3017C20.124 11.0751 19.9535 11.1476 19.8278 11.2767C19.7021 11.4059 19.6315 11.581 19.6315 11.7636C19.6315 11.9462 19.7021 12.1213 19.8278 12.2505C19.9535 12.3796 20.124 12.4521 20.3017 12.4521H22.5102C22.7709 12.4521 23.021 12.5585 23.2054 12.748C23.3898 12.9374 23.4934 13.1943 23.4934 13.4622C23.4934 13.7301 23.3898 13.9871 23.2054 14.1765C23.021 14.3659 22.7709 14.4724 22.5102 14.4724H20.3017C20.124 14.4724 19.9535 14.5449 19.8278 14.674C19.7021 14.8032 19.6315 14.9783 19.6315 15.1609C19.6315 15.3435 19.7021 15.5186 19.8278 15.6478C19.9535 15.7769 20.124 15.8494 20.3017 15.8494H22.5597C22.8054 15.8522 23.0402 15.9544 23.213 16.1339C23.3859 16.3134 23.4828 16.5557 23.4828 16.8082C23.4828 17.0607 23.3859 17.303 23.213 17.4826C23.0402 17.6621 22.8054 17.7643 22.5597 17.7671H19.3037C19.1259 17.7671 18.9555 17.8396 18.8298 17.9687C18.7041 18.0979 18.6335 18.273 18.6335 18.4556C18.6335 18.6382 18.7041 18.8133 18.8298 18.9425C18.9555 19.0716 19.1259 19.1441 19.3037 19.1441H21.828C22.072 19.1469 22.305 19.2484 22.4766 19.4266C22.6482 19.6048 22.7444 19.8453 22.7444 20.0959C22.7444 20.3466 22.6482 20.5871 22.4766 20.7653C22.305 20.9435 22.072 21.045 21.828 21.0478H17.1564C15.5156 21.0478 14.0551 20.9826 12.7986 20.1817C11.2781 19.2121 9.524 18.6986 7.73438 18.699H7.08006V9.06435H7.84608Z" fill="white"/>
        <path d="M16.8706 29.4512C17.0951 29.4514 17.3104 29.5432 17.4691 29.7063C17.6279 29.8693 17.7172 30.0905 17.7175 30.3212C17.7175 30.5038 17.7881 30.6789 17.9138 30.808C18.0394 30.9372 18.2099 31.0097 18.3876 31.0097C18.5654 31.0097 18.7359 30.9372 18.8615 30.808C18.9872 30.6789 19.0578 30.5038 19.0578 30.3212C19.0571 29.8459 18.9099 29.3832 18.6373 28.9992C18.3648 28.6152 17.9809 28.3297 17.5408 28.1836V27.9069C17.5408 27.7243 17.4701 27.5491 17.3445 27.42C17.2188 27.2909 17.0483 27.2183 16.8706 27.2183C16.6928 27.2183 16.5224 27.2909 16.3967 27.42C16.271 27.5491 16.2004 27.7243 16.2004 27.9069V28.1836C15.7041 28.3476 15.2812 28.6883 15.0079 29.1443C14.7345 29.6004 14.6287 30.1417 14.7096 30.6708C14.7905 31.1999 15.0526 31.6818 15.4489 32.0299C15.8451 32.3779 16.3493 32.569 16.8706 32.5689C16.9817 32.5681 17.092 32.5899 17.195 32.6329C17.2979 32.6759 17.3917 32.7393 17.4708 32.8195C17.5499 32.8998 17.6129 32.9952 17.6561 33.1005C17.6994 33.2057 17.722 33.3186 17.7227 33.4328C17.7234 33.5471 17.7023 33.6603 17.6604 33.7661C17.6185 33.8719 17.5568 33.9682 17.4787 34.0495C17.4006 34.1308 17.3077 34.1955 17.2053 34.2399C17.1028 34.2843 16.9929 34.3075 16.8817 34.3083C16.8781 34.3083 16.8746 34.3083 16.8706 34.3083C16.8665 34.3083 16.8635 34.3083 16.8594 34.3083C16.6368 34.3052 16.4244 34.2123 16.2679 34.0496C16.1115 33.8869 16.0236 33.6675 16.0233 33.4388C16.0233 33.2562 15.9527 33.0811 15.8271 32.952C15.7014 32.8228 15.5309 32.7503 15.3532 32.7503C15.1754 32.7503 15.0049 32.8228 14.8793 32.952C14.7536 33.0811 14.683 33.2562 14.683 33.4388C14.6836 33.9141 14.8308 34.377 15.1033 34.7611C15.3758 35.1453 15.7597 35.4309 16.1999 35.577V35.9246C16.1999 36.1072 16.2705 36.2823 16.3962 36.4115C16.5219 36.5406 16.6924 36.6131 16.8701 36.6131C17.0479 36.6131 17.2183 36.5406 17.344 36.4115C17.4697 36.2823 17.5403 36.1072 17.5403 35.9246V35.577C18.0366 35.4131 18.4595 35.0724 18.7328 34.6163C19.0062 34.1603 19.112 33.619 19.0311 33.0899C18.9502 32.5608 18.6881 32.0788 18.2918 31.7308C17.8956 31.3828 17.3914 31.1916 16.8701 31.1918C16.6472 31.1892 16.4343 31.0964 16.2776 30.9335C16.1209 30.7706 16.033 30.5508 16.033 30.3218C16.033 30.0928 16.1209 29.873 16.2776 29.7101C16.4343 29.5472 16.6477 29.4538 16.8706 29.4512Z" fill="white"/>
    </symbol>
    <symbol viewBox="0 0 20 22" id="share">       
        <path d="M13.41 12.51L6.58 16.49M6.59 5.51L13.41 9.49M1 4C1 5.65685 2.34315 7 4 7C5.65685 7 7 5.65685 7 4C7 2.34315 5.65685 1 4 1C2.34315 1 1 2.34315 1 4ZM13 11C13 12.6569 14.3431 14 16 14C17.6569 14 19 12.6569 19 11C19 9.34315 17.6569 8 16 8C14.3431 8 13 9.34315 13 11ZM1 18C1 19.6569 2.34315 21 4 21C5.65685 21 7 19.6569 7 18C7 16.3431 5.65685 15 4 15C2.34315 15 1 16.3431 1 18Z" stroke="#918BC5" stroke-width="2" stroke-linecap="round" stroke-linejoin="round"/>
    </symbol>
</svg>